<svg xmlns="http://www.w3.org/2000/svg" width="234" height="56" viewBox="0 0 234 56" version="1.1"><path d="M 16.034 8.689 C 11.588 11.032, 10.050 12.562, 7.784 16.899 C 1.806 28.343, 5.436 41.727, 16.034 47.311 C 20.966 49.910, 22.214 50.148, 28.816 49.742 C 39.445 49.088, 44.156 44.897, 40.964 38.933 C 39.941 37.022, 39.308 36.854, 35.651 37.527 C 23.534 39.758, 19.185 37.818, 18.278 29.778 C 17.646 24.167, 19.800 19.740, 24.012 17.995 C 26.542 16.947, 28.109 16.947, 32.474 17.994 C 38.788 19.508, 40.713 18.991, 41.578 15.545 C 43.004 9.862, 38.863 6.875, 28.690 6.250 C 22.232 5.853, 20.943 6.102, 16.034 8.689 M 56.007 7.593 C 47.928 11.097, 43.706 18.141, 43.706 28.118 C 43.706 40.696, 51.328 49.044, 63.522 49.821 C 77.564 50.715, 87 41.524, 87 26.953 C 87 21.421, 83.182 13.243, 79.257 10.365 C 73.158 5.895, 62.778 4.657, 56.007 7.593 M 140 8 C 138.148 9.852, 138 11.333, 138 28 C 138 44.667, 138.148 46.148, 140 48 C 141.100 49.100, 143.324 50, 144.943 50 C 149.265 50, 150.994 46.882, 151.029 39.027 L 151.059 32.500 154.161 36 C 167.063 50.559, 170.391 52.540, 174.435 48.072 C 176.945 45.299, 175.770 42.678, 168.236 34.251 L 161.756 27.002 168.378 19.982 C 175.321 12.622, 176.190 10.387, 173.171 7.655 C 169.535 4.364, 166.924 5.540, 158.750 14.152 L 151 22.317 151 16.159 C 151 9.221, 148.939 6, 144.500 6 C 143.125 6, 141.100 6.900, 140 8 M 181.571 7.571 C 180.254 8.888, 180 12.183, 180 27.916 C 180 44.834, 180.181 46.854, 181.829 48.345 C 184.244 50.531, 188.284 50.448, 190.345 48.171 C 191.760 46.608, 192 43.653, 192 27.826 C 192 11.158, 191.817 9.145, 190.171 7.655 C 187.861 5.565, 183.620 5.523, 181.571 7.571 M 20.539 8.428 C 1.148 13.782, 2.170 43.683, 21.889 47.889 C 31.256 49.887, 40 47.083, 40 42.081 C 40 38.723, 38.045 37.652, 34.426 39.028 C 33.020 39.563, 29.839 40, 27.358 40 C 23.705 40, 22.290 39.444, 19.923 37.077 C 17.326 34.479, 17 33.468, 17 28 C 17 22.532, 17.326 21.521, 19.923 18.923 C 22.290 16.556, 23.705 16, 27.358 16 C 29.839 16, 33.079 16.460, 34.557 17.021 C 37.840 18.270, 40 16.834, 40 13.403 C 40 8.729, 29.331 6.001, 20.539 8.428 M 60.500 7.892 C 51.486 10.216, 46.247 16.203, 45.314 25.248 C 43.926 38.699, 52.032 48.223, 65 48.377 C 71.824 48.458, 77.246 45.911, 81.436 40.657 C 84.332 37.025, 84.500 36.332, 84.500 28 C 84.500 19.668, 84.332 18.975, 81.436 15.343 C 76.497 9.149, 67.729 6.029, 60.500 7.892 M 199.200 8.200 C 198.354 9.046, 198 14.784, 198 27.629 C 198 42.867, 198.258 46.115, 199.571 47.429 C 200.835 48.693, 203.633 49, 213.871 49 C 227.320 49, 229 48.486, 229 44.371 C 229 40.201, 226.524 39, 217.929 39 L 210 39 210 36 L 210 33 217.345 33 C 225.207 33, 228 31.524, 228 27.371 C 228 23.876, 225.956 23, 217.800 23 L 210 23 210 20 L 210 17 217.929 17 C 223.803 17, 226.264 16.593, 227.429 15.429 C 229.294 13.564, 229.483 9.883, 227.800 8.200 C 226.134 6.534, 200.866 6.534, 199.200 8.200 M 140.627 9.529 C 139.685 11.984, 139.902 45.298, 140.870 46.824 C 141.375 47.621, 143.063 48.019, 145.105 47.824 L 148.500 47.500 148.789 38.750 C 148.948 33.938, 149.447 30, 149.899 30 C 150.350 30, 154.443 34.074, 158.994 39.053 C 166.410 47.167, 167.592 48.075, 170.384 47.803 C 175.701 47.286, 174.903 44.363, 166.945 35.214 L 159.806 27.007 166.450 19.831 C 173.929 11.753, 174.705 8.715, 169.419 8.199 C 166.678 7.932, 165.480 8.843, 158.575 16.449 C 154.305 21.152, 150.423 25, 149.946 25 C 149.470 25, 148.950 21.287, 148.790 16.750 L 148.500 8.500 144.877 8.197 C 142.253 7.978, 141.082 8.345, 140.627 9.529 M 182.200 9.200 C 181.358 10.042, 181 15.644, 181 28 C 181 40.356, 181.358 45.958, 182.200 46.800 C 184.101 48.701, 188.792 48.258, 189.965 46.066 C 190.556 44.962, 191 37.207, 191 28 C 191 18.793, 190.556 11.038, 189.965 9.934 C 188.792 7.742, 184.101 7.299, 182.200 9.200 M 200.655 9.829 C 198.253 12.483, 198.181 44.038, 200.571 46.429 C 201.824 47.681, 204.557 48, 214.036 48 C 225.029 48, 226.013 47.844, 227.034 45.936 C 229.072 42.129, 226.750 41, 216.878 41 L 208 41 208 36.039 L 208 31.078 216.750 30.789 L 225.500 30.500 225.500 27.500 L 225.500 24.500 216.750 24.211 L 208 23.922 208 19.461 L 208 15 216.878 15 C 226.750 15, 229.072 13.871, 227.034 10.064 C 226.014 8.158, 225.028 8, 214.120 8 C 203.949 8, 202.080 8.254, 200.655 9.829 M 100.027 12.781 C 94.934 16.242, 94.423 16.961, 92.661 23.152 C 90.797 29.704, 90.798 29.893, 92.715 35.652 C 94.300 40.417, 95.625 42.287, 99.868 45.750 C 104.811 49.784, 105.406 50, 111.603 50 C 118.594 50, 120.428 49.336, 126.199 44.711 C 130.055 41.621, 133 35.161, 133 29.790 C 133 26.525, 130.725 25.154, 128.445 27.046 C 127.286 28.007, 126.634 28.034, 125.758 27.158 C 125.121 26.521, 123.340 26, 121.800 26 C 120.260 26, 119 25.539, 119 24.975 C 119 24.412, 117.875 23.523, 116.500 23 C 115.033 22.442, 114 21.257, 114 20.132 C 114 19.077, 113.277 17.937, 112.394 17.598 C 111.268 17.166, 110.969 16.260, 111.393 14.570 C 113.033 8.036, 108.141 7.266, 100.027 12.781 M 104.416 12.028 C 98.033 15.193, 95.513 18.193, 94.023 24.403 C 92.814 29.445, 92.854 30.694, 94.379 35.532 C 95.749 39.881, 97.025 41.691, 100.692 44.491 C 103.220 46.421, 106.010 48.050, 106.894 48.111 C 113.933 48.599, 116.903 48.367, 119.500 47.125 C 125.390 44.308, 128.003 41.608, 129.998 36.276 C 132.714 29.017, 132.631 27.625, 129.529 28.403 C 126.741 29.103, 119.026 27.631, 118.105 26.223 C 117.772 25.715, 116.487 24.766, 115.250 24.115 C 114.013 23.463, 113 22.326, 113 21.587 C 113 20.849, 112.325 19.685, 111.500 19 C 110.675 18.315, 110 16.262, 110 14.437 C 110 10.081, 109.114 9.699, 104.416 12.028 M 104.192 15.075 C 104.389 15.666, 104.977 16.150, 105.500 16.150 C 106.023 16.150, 106.611 15.666, 106.808 15.075 C 107.005 14.484, 106.417 14, 105.500 14 C 104.583 14, 103.995 14.484, 104.192 15.075 M 61.500 15.945 C 57.021 17.778, 55.500 20.841, 55.500 28.024 C 55.500 33.822, 55.855 35.216, 57.876 37.368 C 62.533 42.326, 70.618 41.573, 73.547 35.909 C 75.306 32.508, 75.447 24.075, 73.805 20.472 C 71.807 16.086, 66.198 14.022, 61.500 15.945 M 60.251 18.537 C 55.334 21.981, 55.334 34.019, 60.251 37.463 C 63.652 39.846, 68.276 39.400, 71.076 36.419 C 73.070 34.297, 73.500 32.803, 73.500 28 C 73.500 23.197, 73.070 21.703, 71.076 19.581 C 68.276 16.600, 63.652 16.154, 60.251 18.537 M 101.192 23.075 C 101.389 23.666, 101.977 24.150, 102.500 24.150 C 103.023 24.150, 103.611 23.666, 103.808 23.075 C 104.005 22.484, 103.417 22, 102.500 22 C 101.583 22, 100.995 22.484, 101.192 23.075 M 112.088 26.394 C 111.211 27.451, 111.319 27.908, 112.556 28.383 C 114.810 29.248, 115 29.184, 115 27.559 C 115 25.452, 113.401 24.812, 112.088 26.394 M 96 35 C 96 36.289, 96.506 36.998, 97.250 36.750 C 97.938 36.521, 98.500 35.733, 98.500 35 C 98.500 34.267, 97.938 33.479, 97.250 33.250 C 96.506 33.002, 96 33.711, 96 35 M 107.229 37.188 C 107.847 39.042, 110 39.349, 110 37.583 C 110 36.712, 109.287 36, 108.417 36 C 107.546 36, 107.011 36.534, 107.229 37.188 M 121.639 36.694 C 120.513 37.820, 120.954 39, 122.500 39 C 123.325 39, 124 38.577, 124 38.059 C 124 36.798, 122.438 35.895, 121.639 36.694 M 110.639 44.694 C 109.513 45.820, 109.954 47, 111.500 47 C 112.325 47, 113 46.577, 113 46.059 C 113 44.798, 111.438 43.895, 110.639 44.694" stroke="none" fill="#784d21" fill-rule="evenodd"/><path d="M 20.539 8.428 C 1.148 13.782, 2.170 43.683, 21.889 47.889 C 31.256 49.887, 40 47.083, 40 42.081 C 40 38.723, 38.045 37.652, 34.426 39.028 C 33.020 39.563, 29.839 40, 27.358 40 C 23.705 40, 22.290 39.444, 19.923 37.077 C 17.326 34.479, 17 33.468, 17 28 C 17 22.532, 17.326 21.521, 19.923 18.923 C 22.290 16.556, 23.705 16, 27.358 16 C 29.839 16, 33.079 16.460, 34.557 17.021 C 37.840 18.270, 40 16.834, 40 13.403 C 40 8.729, 29.331 6.001, 20.539 8.428 M 60.500 7.892 C 51.486 10.216, 46.247 16.203, 45.314 25.248 C 43.926 38.699, 52.032 48.223, 65 48.377 C 71.824 48.458, 77.246 45.911, 81.436 40.657 C 84.332 37.025, 84.500 36.332, 84.500 28 C 84.500 19.668, 84.332 18.975, 81.436 15.343 C 76.497 9.149, 67.729 6.029, 60.500 7.892 M 140.627 9.529 C 139.685 11.984, 139.902 45.298, 140.870 46.824 C 141.375 47.621, 143.063 48.019, 145.105 47.824 L 148.500 47.500 148.789 38.750 C 148.948 33.938, 149.447 30, 149.899 30 C 150.350 30, 154.443 34.074, 158.994 39.053 C 166.410 47.167, 167.592 48.075, 170.384 47.803 C 175.701 47.286, 174.903 44.363, 166.945 35.214 L 159.806 27.007 166.450 19.831 C 173.929 11.753, 174.705 8.715, 169.419 8.199 C 166.678 7.932, 165.480 8.843, 158.575 16.449 C 154.305 21.152, 150.423 25, 149.946 25 C 149.470 25, 148.950 21.287, 148.790 16.750 L 148.500 8.500 144.877 8.197 C 142.253 7.978, 141.082 8.345, 140.627 9.529 M 182.200 9.200 C 181.358 10.042, 181 15.644, 181 28 C 181 40.356, 181.358 45.958, 182.200 46.800 C 184.101 48.701, 188.792 48.258, 189.965 46.066 C 190.556 44.962, 191 37.207, 191 28 C 191 18.793, 190.556 11.038, 189.965 9.934 C 188.792 7.742, 184.101 7.299, 182.200 9.200 M 200.655 9.829 C 198.253 12.483, 198.181 44.038, 200.571 46.429 C 201.824 47.681, 204.557 48, 214.036 48 C 225.029 48, 226.013 47.844, 227.034 45.936 C 229.072 42.129, 226.750 41, 216.878 41 L 208 41 208 36.039 L 208 31.078 216.750 30.789 L 225.500 30.500 225.500 27.500 L 225.500 24.500 216.750 24.211 L 208 23.922 208 19.461 L 208 15 216.878 15 C 226.750 15, 229.072 13.871, 227.034 10.064 C 226.014 8.158, 225.028 8, 214.120 8 C 203.949 8, 202.080 8.254, 200.655 9.829 M 104.416 12.028 C 98.033 15.193, 95.513 18.193, 94.023 24.403 C 92.814 29.445, 92.854 30.694, 94.379 35.532 C 95.749 39.881, 97.025 41.691, 100.692 44.491 C 103.220 46.421, 106.010 48.050, 106.894 48.111 C 113.933 48.599, 116.903 48.367, 119.500 47.125 C 125.390 44.308, 128.003 41.608, 129.998 36.276 C 132.714 29.017, 132.631 27.625, 129.529 28.403 C 126.741 29.103, 119.026 27.631, 118.105 26.223 C 117.772 25.715, 116.487 24.766, 115.250 24.115 C 114.013 23.463, 113 22.326, 113 21.587 C 113 20.849, 112.325 19.685, 111.500 19 C 110.675 18.315, 110 16.262, 110 14.437 C 110 10.081, 109.114 9.699, 104.416 12.028 M 104.192 15.075 C 104.389 15.666, 104.977 16.150, 105.500 16.150 C 106.023 16.150, 106.611 15.666, 106.808 15.075 C 107.005 14.484, 106.417 14, 105.500 14 C 104.583 14, 103.995 14.484, 104.192 15.075 M 61.500 15.945 C 57.021 17.778, 55.500 20.841, 55.500 28.024 C 55.500 33.822, 55.855 35.216, 57.876 37.368 C 62.533 42.326, 70.618 41.573, 73.547 35.909 C 75.306 32.508, 75.447 24.075, 73.805 20.472 C 71.807 16.086, 66.198 14.022, 61.500 15.945 M 101.192 23.075 C 101.389 23.666, 101.977 24.150, 102.500 24.150 C 103.023 24.150, 103.611 23.666, 103.808 23.075 C 104.005 22.484, 103.417 22, 102.500 22 C 101.583 22, 100.995 22.484, 101.192 23.075 M 112.088 26.394 C 111.211 27.451, 111.319 27.908, 112.556 28.383 C 114.810 29.248, 115 29.184, 115 27.559 C 115 25.452, 113.401 24.812, 112.088 26.394 M 96 35 C 96 36.289, 96.506 36.998, 97.250 36.750 C 97.938 36.521, 98.500 35.733, 98.500 35 C 98.500 34.267, 97.938 33.479, 97.250 33.250 C 96.506 33.002, 96 33.711, 96 35 M 107.229 37.188 C 107.847 39.042, 110 39.349, 110 37.583 C 110 36.712, 109.287 36, 108.417 36 C 107.546 36, 107.011 36.534, 107.229 37.188 M 121.639 36.694 C 120.513 37.820, 120.954 39, 122.500 39 C 123.325 39, 124 38.577, 124 38.059 C 124 36.798, 122.438 35.895, 121.639 36.694 M 110.639 44.694 C 109.513 45.820, 109.954 47, 111.500 47 C 112.325 47, 113 46.577, 113 46.059 C 113 44.798, 111.438 43.895, 110.639 44.694" stroke="none" fill="#d7722b" fill-rule="evenodd"/></svg>